<svg xmlns="http://www.w3.org/2000/svg" width="22.22" height="25.394" viewBox="0 0 22.22 25.394">
  <path id="Icon_map-wheelchair" data-name="Icon map-wheelchair" d="M9.643,4.952A2.116,2.116,0,1,0,7.527,2.836,2.118,2.118,0,0,0,9.643,4.952Zm1.494,19.4A6.576,6.576,0,0,1,4.61,17.722,6.653,6.653,0,0,1,6.9,12.7l-.116-2.075a8.4,8.4,0,0,0,4.355,15.487,8.672,8.672,0,0,0,7.614-5.29l-1.257-1.731a6.537,6.537,0,0,1-6.357,5.262Zm12.9-4.06H22.983l-4.232-5.819c-.229-.4-1.058-1.587-2.116-1.587H11.874V10.772h4.232c.548,0,1.14-.233,1.14-.8s-.576-.79-1.14-.79H11.874V7.068C11.8,5.9,10.816,5.481,9.763,5.506S8.17,6.01,8.17,7.068v7.407c.1,1.188.956,1.587,2.116,1.587h6.348l3.7,4.761c.239.395,1.058,1.587,1.058,1.587h2.645a1.058,1.058,0,0,0,0-2.116Z" transform="translate(-2.88 -0.72)" fill="#394640"/>
</svg>
