<svg xmlns="http://www.w3.org/2000/svg" width="57.605" height="74.994" viewBox="0 0 57.605 74.994">
  <g id="Group_40" data-name="Group 40" transform="translate(-1498.334 -523.945)">
    <path id="Path_33" data-name="Path 33" d="M28.8,0A28.8,28.8,0,0,1,57.6,28.8c0,15.907-28.8,46.192-28.8,46.192S0,44.709,0,28.8A28.8,28.8,0,0,1,28.8,0Z" transform="translate(1498.334 523.945)" fill="#e69e3d"/>
    <path id="Path_32" data-name="Path 32" d="M28.053,46.987c0-.1-.01-.168-.013-.27.126-.01.235-.02.348-.026a2.016,2.016,0,0,0,2.045-1.776,8.579,8.579,0,0,0,.129-1.747V23.387A7.166,7.166,0,0,0,30.43,21.7a3.346,3.346,0,0,0-.255-.737,1.873,1.873,0,0,0-1.545-1c-.176-.023-.355-.036-.547-.056-.01-.076-.02-.145-.03-.214a.4.4,0,0,1,.1-.036,1.287,1.287,0,0,1,.159-.007c3.653,0,7.308-.013,10.961.02a35.417,35.417,0,0,1,6.155.546,13.92,13.92,0,0,1,3.951,1.263,6.025,6.025,0,0,1,1.813,1.391A4.7,4.7,0,0,1,52.269,26.5a4.856,4.856,0,0,1-2.045,3.562,10.122,10.122,0,0,1-3.252,1.559,21.542,21.542,0,0,1-3.928.77c-.481.053-.965.089-1.445.135a.352.352,0,0,0-.232.118.98.98,0,0,0,.182.059c.911.086,1.826.145,2.734.253a17.884,17.884,0,0,1,5.24,1.322,10.1,10.1,0,0,1,1.564.875A5.028,5.028,0,0,1,53.4,39a6.046,6.046,0,0,1-3.165,6.118,12.11,12.11,0,0,1-3.358,1.25,23.829,23.829,0,0,1-4.471.566c-1.011.039-2.022.053-3.029.053q-5.464.01-10.928,0C28.315,46.987,28.192,46.987,28.053,46.987Zm7.879-.283H36.3c.832,0,1.664,0,2.5,0a14.909,14.909,0,0,0,2.3-.145,9.513,9.513,0,0,0,3.172-1,6.063,6.063,0,0,0,3.119-3.947,8.438,8.438,0,0,0,.176-3.233,5.545,5.545,0,0,0-3.344-4.6A10.035,10.035,0,0,0,40.39,32.9c-1.419-.059-2.841-.043-4.262-.059-.06,0-.123.013-.2.02C35.932,37.465,35.932,42.06,35.932,46.7Zm0-26.764V32.531h.328c.716,0,1.432,0,2.148,0a16.725,16.725,0,0,0,2.33-.141,9.339,9.339,0,0,0,2.95-.878,5.466,5.466,0,0,0,2.89-3.4,7.684,7.684,0,0,0,.192-3.628,4.635,4.635,0,0,0-2.549-3.424c-.2-.1-.4-.194-.6-.28a11.57,11.57,0,0,0-3.281-.747,42.174,42.174,0,0,0-4.229-.109C36.064,19.927,36.011,19.934,35.935,19.94Z" transform="translate(1486.401 519.612)" fill="#1e2624"/>
  </g>
</svg>
