<svg xmlns="http://www.w3.org/2000/svg" width="17.826" height="23.771" viewBox="0 0 17.826 23.771">
  <path id="Icon_awesome-baby" data-name="Icon awesome-baby" d="M8.915,7.428A3.714,3.714,0,1,0,5.2,3.714,3.713,3.713,0,0,0,8.915,7.428ZM6.436,18.98l1.189-1.486L4.769,15.117,2.638,17.782A1.861,1.861,0,0,0,2.6,20.057l2.229,2.971A1.857,1.857,0,1,0,7.8,20.8Zm6.625-3.863-2.855,2.377,1.189,1.486L10.029,20.8A1.857,1.857,0,1,0,13,23.028l2.229-2.971a1.861,1.861,0,0,0-.037-2.275l-2.131-2.665ZM17.49,6.732A1.859,1.859,0,0,0,14.9,6.277L13.019,7.6a7.181,7.181,0,0,1-8.208,0L2.926,6.282A1.856,1.856,0,1,0,.79,9.318l1.885,1.323a11.016,11.016,0,0,0,2.526,1.3v1.435h7.428v-1.43a11.016,11.016,0,0,0,2.526-1.3L17.04,9.323A1.86,1.86,0,0,0,17.49,6.732Z" transform="translate(-0.003)" fill="#394640"/>
</svg>
