<svg id="Group_388" data-name="Group 388" xmlns="http://www.w3.org/2000/svg" width="51.753" height="67.377" viewBox="0 0 51.753 67.377">
  <path id="Path_33" data-name="Path 33" d="M25.877,0A25.877,25.877,0,0,1,51.753,25.877c0,14.291-25.877,41.5-25.877,41.5S0,40.168,0,25.877A25.877,25.877,0,0,1,25.877,0Z" fill="#394640"/>
  <path id="Path_32" data-name="Path 32" d="M28.052,44.211c0-.089-.009-.151-.012-.242.113-.009.211-.018.313-.024a1.811,1.811,0,0,0,1.837-1.6,7.708,7.708,0,0,0,.116-1.569V23.008a6.438,6.438,0,0,0-.119-1.513,3.006,3.006,0,0,0-.229-.662,1.683,1.683,0,0,0-1.388-.9c-.158-.021-.319-.033-.491-.05-.009-.068-.018-.13-.027-.192a.356.356,0,0,1,.086-.033,1.156,1.156,0,0,1,.143-.006c3.282,0,6.566-.012,9.848.018a31.82,31.82,0,0,1,5.53.491,12.506,12.506,0,0,1,3.55,1.135,5.413,5.413,0,0,1,1.629,1.25,4.226,4.226,0,0,1,.971,3.254A4.363,4.363,0,0,1,47.971,29a9.094,9.094,0,0,1-2.921,1.4,19.354,19.354,0,0,1-3.529.691c-.432.047-.867.08-1.3.121a.316.316,0,0,0-.208.106.881.881,0,0,0,.164.053c.819.077,1.641.13,2.457.228a16.068,16.068,0,0,1,4.708,1.188,9.071,9.071,0,0,1,1.406.786,4.517,4.517,0,0,1,2.079,3.457,5.432,5.432,0,0,1-2.844,5.5,10.88,10.88,0,0,1-3.017,1.123,21.408,21.408,0,0,1-4.017.508c-.908.035-1.816.047-2.722.047q-4.909.009-9.818,0C28.287,44.211,28.177,44.211,28.052,44.211Zm7.078-.254h.328c.747,0,1.495,0,2.242,0a13.4,13.4,0,0,0,2.064-.13,8.547,8.547,0,0,0,2.85-.9,5.447,5.447,0,0,0,2.8-3.546,7.581,7.581,0,0,0,.158-2.9,4.982,4.982,0,0,0-3-4.137,9.016,9.016,0,0,0-3.433-.789c-1.275-.053-2.552-.038-3.829-.053-.054,0-.11.012-.176.018C35.13,35.656,35.13,39.784,35.13,43.957Zm0-24.046V31.224h.295c.643,0,1.286,0,1.93,0a15.025,15.025,0,0,0,2.093-.127,8.39,8.39,0,0,0,2.65-.789,4.911,4.911,0,0,0,2.6-3.053A6.9,6.9,0,0,0,44.871,24a4.164,4.164,0,0,0-2.29-3.076c-.176-.092-.357-.174-.539-.251A10.4,10.4,0,0,0,39.094,20a37.89,37.89,0,0,0-3.8-.1C35.249,19.9,35.2,19.906,35.133,19.911Z" transform="translate(-13.57 -5.89)" fill="#fff"/>
</svg>
